<svg width="84" height="84" viewBox="0 0 84 84" fill="none" xmlns="http://www.w3.org/2000/svg">
<path d="M82.5 42C82.5 64.3675 64.3675 82.5 42 82.5C19.6325 82.5 1.5 64.3675 1.5 42C1.5 19.6325 19.6325 1.5 42 1.5C64.3675 1.5 82.5 19.6325 82.5 42Z" stroke="black" stroke-width="3"/>
<path d="M31.6669 37.8796C33.7718 37.8796 35.4782 32.8611 35.4782 26.6705C35.4782 20.4799 33.7718 15.4614 31.6669 15.4614C29.5619 15.4614 27.8555 20.4799 27.8555 26.6705C27.8555 32.8611 29.5619 37.8796 31.6669 37.8796Z" fill="black"/>
<path d="M52.742 37.8796C54.847 37.8796 56.5534 32.8611 56.5534 26.6705C56.5534 20.4799 54.847 15.4614 52.742 15.4614C50.6371 15.4614 48.9307 20.4799 48.9307 26.6705C48.9307 32.8611 50.6371 37.8796 52.742 37.8796Z" fill="black"/>
<path d="M14 45C15.2264 59.009 27.0702 70 41.5 70C55.9298 70 67.7736 59.009 69 45" stroke="black" stroke-width="3" stroke-linecap="round"/>
<path d="M10 46.5C12.3267 44.1868 13.9028 43.6546 17.5 45" stroke="black" stroke-width="3" stroke-linecap="round"/>
<path d="M72.75 46.5C70.4233 44.1868 68.8472 43.6546 65.25 45" stroke="black" stroke-width="3" stroke-linecap="round"/>
</svg>
