<svg width="81" height="33" viewBox="0 0 81 33" fill="none" xmlns="http://www.w3.org/2000/svg">
<path d="M10.8981 20.9461V11.5913C12.8669 11.5913 14.4022 13.5463 14.4022 16.2455C14.4022 18.991 12.8669 20.9461 10.8981 20.9461ZM9.3151 32.5836C19.012 32.5836 26.0719 25.2764 26.0719 16.2455C26.0719 7.30722 19.012 0 9.3151 0H0V32.5836H9.3151ZM81 11.1247V0H56.177V18.3856H55.8906L51.8058 0H42.1566L39.9969 8.3792H39.8537L37.6422 0H28.4703L20.3087 32.5836H29.6238L31.3539 25.6929H31.6403L32.7938 32.5836H41.389L43.1191 25.6929H43.4055L44.6067 32.5836H69.5729V23.0399H81V15.081L69.5729 11.7301V11.1247H81Z" fill="white"/>
</svg>
