<svg width="41" height="24" viewBox="0 0 41 24" fill="none" xmlns="http://www.w3.org/2000/svg">
<path d="M5.29331 23.629H35.3654C36.9467 23.629 38.1595 23.2102 39.0037 22.3726C39.8482 21.535 40.2704 20.3122 40.2704 18.7041V5.79876C40.2704 4.21743 39.8516 3.00799 39.014 2.17043C38.1763 1.33285 36.9736 0.914062 35.4056 0.914062H5.3335C3.75217 0.914062 2.54273 1.33285 1.70517 2.17043C0.867592 3.00799 0.448801 4.21743 0.448801 5.79876L0.428711 18.7041C0.428711 20.3122 0.84414 21.535 1.675 22.3726C2.50588 23.2102 3.71199 23.629 5.29331 23.629ZM5.4139 22.1414C4.2078 22.1414 3.32668 21.8533 2.77053 21.2771C2.2144 20.7008 1.93633 19.8097 1.93633 18.6036V5.93947C1.93633 4.73338 2.21776 3.84221 2.78061 3.26596C3.34344 2.68972 4.2212 2.40159 5.4139 2.40159H35.285C36.4912 2.40159 37.3723 2.68972 37.9284 3.26596C38.4844 3.84221 38.7624 4.73338 38.7624 5.93947V18.6036C38.7624 19.8097 38.4811 20.7008 37.9185 21.2771C37.3556 21.8533 36.4711 22.1414 35.2649 22.1414H5.4139Z" fill="black"/>
<path d="M16.7711 13.9196H18.5802C19.0493 13.9196 19.2972 13.6851 19.324 13.216V11.427C19.324 10.9311 19.0761 10.6832 18.5802 10.6832H16.7711C16.3154 10.6832 16.0742 10.9311 16.0474 11.427V13.216C16.0742 13.6851 16.3154 13.9196 16.7711 13.9196ZM11.5648 13.9196H13.394C13.8764 13.9196 14.1176 13.6851 14.1176 13.216V11.427C14.1176 10.9311 13.8764 10.6832 13.394 10.6832H11.5648C11.0823 10.6832 10.8411 10.9311 10.8411 11.427V13.216C10.8411 13.6851 11.0823 13.9196 11.5648 13.9196ZM11.5648 8.89418H13.394C13.8764 8.89418 14.1176 8.66636 14.1176 8.21071V6.40157C14.1176 5.89232 13.8764 5.6377 13.394 5.6377H11.5648C11.0823 5.6377 10.8411 5.89232 10.8411 6.40157V8.21071C10.8411 8.66636 11.0823 8.89418 11.5648 8.89418ZM16.751 8.89418H18.5802C19.0761 8.89418 19.324 8.66636 19.324 8.21071V6.40157C19.324 5.89232 19.0761 5.6377 18.5802 5.6377H16.751C16.2819 5.6377 16.0474 5.89232 16.0474 6.40157V8.21071C16.0474 8.66636 16.2819 8.89418 16.751 8.89418ZM32.9931 13.9196H34.8626C35.3316 13.9196 35.5661 13.6851 35.5661 13.216V11.427C35.5661 10.9311 35.3316 10.6832 34.8626 10.6832H33.0133C32.5442 10.6832 32.3097 10.9311 32.3097 11.427V13.216C32.3097 13.6851 32.5375 13.9196 32.9931 13.9196ZM6.35842 13.9196H8.20778C8.6768 13.9196 8.9113 13.6851 8.9113 13.216V11.427C8.9113 10.9311 8.6768 10.6832 8.20778 10.6832H6.35842C5.87598 10.6832 5.63477 10.9311 5.63477 11.427V13.216C5.63477 13.6851 5.87598 13.9196 6.35842 13.9196ZM6.35842 8.89418H8.20778C8.6768 8.89418 8.9113 8.66636 8.9113 8.21071V6.40157C8.9113 5.89232 8.6768 5.6377 8.20778 5.6377H6.35842C5.87598 5.6377 5.63477 5.89232 5.63477 6.40157V8.21071C5.63477 8.66636 5.87598 8.89418 6.35842 8.89418ZM21.9372 8.89418H23.8067C24.2757 8.89418 24.5102 8.66636 24.5102 8.21071V6.40157C24.5102 5.89232 24.2757 5.6377 23.8067 5.6377H21.9573C21.5017 5.6377 21.2738 5.89232 21.2738 6.40157V8.21071C21.2738 8.66636 21.495 8.89418 21.9372 8.89418ZM33.0133 8.89418H34.8425C35.3249 8.89418 35.5661 8.66636 35.5661 8.21071V6.40157C35.5661 5.89232 35.3316 5.6377 34.8626 5.6377H32.9931C32.5375 5.6377 32.3097 5.89232 32.3097 6.40157V8.21071C32.3097 8.66636 32.5442 8.89418 33.0133 8.89418ZM32.9931 18.945H34.8425C35.3249 18.945 35.5661 18.7105 35.5661 18.2414V16.4524C35.5661 15.9432 35.3316 15.6885 34.8626 15.6885H33.0133C32.5442 15.6885 32.3097 15.9432 32.3097 16.4524V18.2414C32.3097 18.7105 32.5375 18.945 32.9931 18.945Z" fill="black"/>
</svg>
