<svg width="15" height="23" viewBox="0 0 15 23" fill="none" xmlns="http://www.w3.org/2000/svg">
<g clip-path="url(#clip0_207_129)">
<path d="M6.87071 16.1829C7.89622 16.1829 8.42453 15.538 8.50221 14.6168C8.50221 14.5554 8.50221 14.4786 8.50221 14.4172C8.57989 13.0047 9.1393 12.4212 11.0816 11.1776C13.1637 9.84179 14.5 8.21428 14.5 5.8498C14.5 2.10346 11.4079 0 7.43008 0C4.52441 0 2.02276 1.21294 0.91954 3.43925C0.624292 4.00733 0.5 4.60613 0.5 5.14352C0.5 6.06476 1.07493 6.70959 2.08491 6.70959C2.87735 6.70959 3.46781 6.26433 3.73197 5.54271C4.38458 3.57742 5.64316 2.97862 7.29022 2.97862C9.34127 2.97862 10.9417 4.08409 10.9417 5.86514C10.9417 7.508 9.93174 8.32175 8.36238 9.33512C6.59099 10.5173 5.1615 11.8992 5.1615 13.9413V14.4633C5.1615 15.4766 5.76749 16.1829 6.87071 16.1829ZM6.87071 23C8.0827 23 9.06158 22.0481 9.06158 20.8658C9.06158 19.6836 8.0827 18.747 6.87071 18.747C5.67425 18.747 4.69533 19.6836 4.69533 20.8658C4.69533 22.0481 5.67425 23 6.87071 23Z" fill="black"/>
</g>
<defs>
<clipPath id="clip0_207_129">
<rect width="15" height="23" fill="white"/>
</clipPath>
</defs>
</svg>
