<svg width="22" height="24" viewBox="0 0 22 24" fill="none" xmlns="http://www.w3.org/2000/svg">
<path d="M1.62793 13.3986C1.62793 8.12521 5.99168 4.00877 10.9554 4.00877C11.2555 4.00877 11.5555 4.03572 11.8282 4.06261L9.91909 2.17925C9.70092 1.93714 9.56452 1.61424 9.56452 1.26452C9.56452 0.564953 10.11 0 10.8464 0C11.2009 0 11.5282 0.161391 11.7737 0.43045L16.0556 4.73523C16.5193 5.21951 16.5465 6.10736 16.0556 6.59164L11.7191 10.8964C11.5009 11.0848 11.1737 11.2462 10.8464 11.2462C10.1373 11.2462 9.59177 10.7081 9.59177 10.0086C9.59177 9.65884 9.72817 9.33595 9.9736 9.09384L12.4283 6.69931C12.1283 6.61858 11.7191 6.59164 11.31 6.59164C7.40992 6.59164 4.32801 9.6319 4.32801 13.4524C4.32801 17.2998 7.40992 20.3669 11.31 20.3669C15.1829 20.3669 18.2648 17.2729 18.2648 13.4524C18.2648 12.726 18.8648 12.134 19.6284 12.134C20.3375 12.134 20.9648 12.726 20.9648 13.4524C20.9648 18.7527 16.6829 23.0305 11.31 23.0305C5.93717 23.0305 1.62793 18.7527 1.62793 13.3986Z" fill="#CA3839"/>
</svg>
