<svg width="26" height="14" viewBox="0 0 26 14" fill="none" xmlns="http://www.w3.org/2000/svg">
<path d="M2.1792 14C2.5594 14 2.86131 13.8882 3.25268 13.6534L12.1313 8.43131C12.668 8.10703 12.9587 7.7492 13.0594 7.35782V12.401C13.0594 13.4297 13.6632 14 14.4124 14C14.7926 14 15.0945 13.8882 15.4859 13.6534L24.3645 8.43131C25.0578 8.01758 25.3486 7.53675 25.3486 7C25.3486 6.46327 25.0578 5.98244 24.3645 5.57989L15.4859 0.346652C15.0945 0.111826 14.7926 0 14.4124 0C13.6632 0 13.0594 0.570302 13.0594 1.61023V6.64217C12.9587 6.25079 12.668 5.89296 12.1313 5.57989L3.25268 0.346652C2.86131 0.111826 2.5594 0 2.1792 0C1.43 0 0.826172 0.570302 0.826172 1.61023V12.401C0.826172 13.4297 1.43 14 2.1792 14Z" fill="#CA3839"/>
</svg>
