<svg width="26" height="14" viewBox="0 0 26 14" fill="none" xmlns="http://www.w3.org/2000/svg">
<path d="M23.9946 4.66118e-05C23.6144 4.65785e-05 23.3125 0.111867 22.9212 0.34669L14.0426 5.56872C13.5058 5.893 13.2151 6.25082 13.1145 6.6422L13.1145 1.59908C13.1145 0.570332 12.5106 4.56078e-05 11.7614 4.55423e-05C11.3812 4.55091e-05 11.0793 0.111866 10.688 0.346689L1.80936 5.56872C1.11615 5.98245 0.82531 6.46327 0.82531 7.00002C0.82531 7.53675 1.11615 8.01758 1.80936 8.42013L10.688 13.6533C11.0793 13.8882 11.3812 14 11.7614 14C12.5106 14 13.1145 13.4297 13.1145 12.3898L13.1145 7.35785C13.2151 7.74923 13.5058 8.10705 14.0426 8.42013L22.9212 13.6533C23.3125 13.8882 23.6144 14 23.9946 14C24.7438 14 25.3477 13.4297 25.3477 12.3898L25.3477 1.59908C25.3477 0.570333 24.7438 4.66773e-05 23.9946 4.66118e-05Z" fill="#CA3839"/>
</svg>
