<svg width="40" height="24" viewBox="0 0 40 24" fill="none" xmlns="http://www.w3.org/2000/svg">
<g clip-path="url(#clip0_501_15220)">
<rect x="1.711" y="1.76471" width="36.8" height="21.4667" rx="2.3" stroke="black" stroke-width="1.53333"/>
<circle cx="5.54408" cy="8.66468" r="1.53333" fill="black"/>
<circle cx="4.77741" cy="4.83161" r="0.766667" fill="black"/>
<circle cx="7.84479" cy="4.83161" r="0.766667" fill="black"/>
<circle cx="10.9112" cy="4.83161" r="0.766667" fill="black"/>
<circle cx="13.9776" cy="4.83161" r="0.766667" fill="black"/>
<circle cx="17.044" cy="4.83161" r="0.766667" fill="black"/>
<circle cx="20.1114" cy="4.83161" r="0.766667" fill="black"/>
<circle cx="29.3106" cy="4.83161" r="0.766667" fill="black"/>
<circle cx="32.378" cy="4.83161" r="0.766667" fill="black"/>
<circle cx="35.4444" cy="4.83161" r="0.766667" fill="black"/>
<circle cx="13.2111" cy="8.66468" r="1.53333" fill="black"/>
<circle cx="17.8107" cy="8.66468" r="1.53333" fill="black"/>
<circle cx="34.6779" cy="8.66468" r="1.53333" fill="black"/>
<rect x="10.1436" y="14.7983" width="1.53333" height="3.06667" fill="black"/>
<rect x="8.61035" y="17.8652" width="1.53333" height="3.06667" fill="black"/>
<rect x="11.6768" y="17.8652" width="1.53333" height="3.06667" fill="black"/>
<rect x="14.7441" y="17.8652" width="1.53333" height="3.06667" fill="black"/>
<rect x="17.8105" y="17.8652" width="1.53333" height="3.06667" fill="black"/>
<rect x="20.877" y="17.8652" width="1.53333" height="3.06667" fill="black"/>
<rect x="23.9434" y="17.8652" width="1.53333" height="3.06667" fill="black"/>
<rect x="27.0107" y="17.8652" width="1.53333" height="3.06667" fill="black"/>
<rect x="30.0771" y="17.8652" width="1.53333" height="3.06667" fill="black"/>
<rect x="13.21" y="14.7983" width="1.53333" height="3.06667" fill="black"/>
<rect x="19.3438" y="14.7983" width="1.53333" height="3.06667" fill="black"/>
<rect x="22.4102" y="14.7983" width="1.53333" height="3.06667" fill="black"/>
<rect x="25.4766" y="14.7983" width="1.53333" height="3.06667" fill="black"/>
<rect x="4.01074" y="17.8647" width="3.06667" height="3.06667" fill="black"/>
<rect x="33.1445" y="17.8647" width="3.06667" height="3.06667" fill="black"/>
<rect x="33.1445" y="14.7979" width="3.06667" height="1.53333" fill="black"/>
<rect x="30.0781" y="14.7979" width="1.53333" height="1.53333" fill="black"/>
<rect x="4.01074" y="14.7979" width="3.06667" height="1.53333" fill="black"/>
<rect x="4.01074" y="11.7314" width="4.6" height="1.53333" fill="black"/>
<rect x="10.1445" y="11.7314" width="16.8667" height="1.53333" fill="black"/>
<rect x="28.5439" y="11.7314" width="7.66667" height="1.53333" fill="black"/>
</g>
<defs>
<clipPath id="clip0_501_15220">
<rect width="38.3333" height="23" fill="white" transform="translate(0.944336 0.998047)"/>
</clipPath>
</defs>
</svg>
